# xmcd CD database file
#
# Track frame offsets:
#	225
#	9442
#	19134
#	28821
#	40784
#	59492
#	70078
#	88110
#	100179
#	113681
#	125415
#	139919
#	151961
#	161546
#	177736
#	185596
#
# Disc length: 2609 seconds
#
# Revision: 2
# Processed by: cddbd v1.5.1PL0 Copyright (c) Steve Scherf et al.
# Submitted via: CDex 1.51
#
DISCID=d80a2e10
DTITLE=Trampske Perly - Trampske Perly I
DYEAR=1900
DGENRE=Country
TTITLE0=Ruty-Suty
TTITLE1=Buraky
TTITLE2=Stanky
TTITLE3=Severni vitr
TTITLE4=Montgomery
TTITLE5=Panenka
TTITLE6=Pampelisky
TTITLE7=Zlatokop Tom
TTITLE8=Bessie
TTITLE9=Japonecka
TTITLE10=Bedna od whiskey
TTITLE11=Okor
TTITLE12=Valcicek
TTITLE13=Praminek vlasu
TTITLE14=Rodne udoli
TTITLE15=Trampske perly
EXTD=
EXTT0=V.Hrubec
EXTT1=J.Fallada
EXTT2=J.Nedved
EXTT3=J.Uhlir_Z.Sverak
EXTT4=M.Jaros-Skunk
EXTT5=R.Krestan
EXTT6=V.Hrubec
EXTT7=R.Harnish
EXTT8=J.Mottl
EXTT9=V.Hrubec
EXTT10=M.Ryvola
EXTT11=V.Hrubec
EXTT12=J.Nedved
EXTT13=J.Slitr_J.Suchy
EXTT14=V.Hrubec
EXTT15=V.Hrubec
PLAYORDER=
